<?xml version="1.0" encoding="UTF-8"?>
<svg xmlns="http://www.w3.org/2000/svg" xmlns:xlink="http://www.w3.org/1999/xlink" width="100px" height="102px" viewBox="0 0 100 101" version="1.1">
<g id="surface1">
<path style=" stroke:none;fill-rule:nonzero;fill:rgb(0%,0%,0%);fill-opacity:1;" d="M 0 50.5 L 0 101 L 99.929688 101 L 99.929688 0 L 0 0 Z M 54.546875 9.449219 L 59.214844 14.085938 L 72.613281 14.085938 L 72.613281 27.398438 L 77.316406 32.070312 L 82.035156 36.757812 L 77.316406 41.449219 L 72.613281 46.121094 L 72.613281 59.433594 L 59.230469 59.433594 L 54.460938 64.15625 L 49.707031 68.878906 L 44.953125 64.15625 L 40.195312 59.433594 L 26.796875 59.433594 L 26.796875 46.121094 L 22.09375 41.449219 L 17.375 36.757812 L 22.09375 32.070312 L 26.796875 27.398438 L 26.796875 14.085938 L 40.195312 14.085938 L 44.863281 9.449219 C 47.425781 6.886719 49.601562 4.808594 49.707031 4.808594 C 49.808594 4.808594 51.988281 6.886719 54.546875 9.449219 Z M 38.503906 73.671875 C 39.453125 74.117188 39.800781 74.804688 39.902344 76.472656 L 39.988281 77.8125 L 38.382812 77.8125 L 38.382812 76.730469 C 38.382812 75.441406 38.105469 74.976562 37.1875 74.703125 C 36.6875 74.546875 36.375 74.546875 35.890625 74.71875 C 35.097656 74.976562 34.75 75.476562 34.75 76.335938 C 34.75 76.96875 34.890625 77.140625 37.152344 79.425781 C 38.46875 80.765625 39.644531 82.019531 39.746094 82.226562 C 39.851562 82.433594 39.988281 83.050781 40.042969 83.601562 C 40.109375 84.425781 40.074219 84.734375 39.730469 85.367188 C 39.175781 86.433594 38.417969 86.792969 36.652344 86.777344 C 34.179688 86.761719 33.316406 85.96875 33.296875 83.652344 L 33.28125 82.363281 L 34.023438 82.3125 L 34.75 82.261719 L 34.75 83.375 C 34.75 84.304688 34.820312 84.578125 35.164062 84.972656 C 35.546875 85.402344 35.703125 85.453125 36.617188 85.453125 C 37.898438 85.453125 38.554688 84.972656 38.554688 84.0625 C 38.554688 83.101562 38.296875 82.742188 35.910156 80.371094 C 33.660156 78.15625 33.574219 78.035156 33.367188 77.089844 C 33.265625 76.558594 33.230469 75.835938 33.296875 75.492188 C 33.4375 74.738281 34.113281 73.894531 34.835938 73.585938 C 35.632812 73.242188 37.636719 73.292969 38.503906 73.671875 Z M 77.542969 73.6875 C 78.542969 74.167969 78.890625 74.855469 78.976562 76.558594 L 79.0625 77.984375 L 77.453125 77.984375 L 77.453125 76.816406 C 77.453125 75.441406 77.195312 74.976562 76.261719 74.703125 C 75.761719 74.546875 75.449219 74.546875 74.964844 74.71875 C 73.839844 75.082031 73.824219 75.148438 73.824219 80.078125 C 73.824219 84.40625 73.824219 84.492188 74.222656 84.941406 C 74.671875 85.472656 75.8125 85.695312 76.574219 85.386719 C 77.160156 85.128906 77.453125 84.5625 77.453125 83.652344 C 77.453125 82.945312 77.644531 82.792969 78.492188 82.84375 C 78.890625 82.878906 78.925781 82.964844 78.976562 83.738281 C 79.046875 84.90625 78.476562 86.003906 77.574219 86.453125 C 76.625 86.933594 74.671875 86.914062 73.703125 86.417969 C 72.390625 85.765625 72.355469 85.609375 72.355469 80.042969 C 72.355469 74.480469 72.371094 74.359375 73.6875 73.707031 C 74.6875 73.226562 76.539062 73.207031 77.542969 73.6875 Z M 7.089844 73.894531 C 7.175781 74.117188 7.726562 76.367188 8.296875 78.925781 C 9.59375 84.769531 9.507812 84.390625 9.613281 84.285156 C 9.664062 84.234375 10.253906 81.863281 10.890625 79.03125 C 11.550781 76.179688 12.136719 73.773438 12.1875 73.6875 C 12.308594 73.484375 13.433594 73.449219 13.539062 73.636719 C 13.605469 73.757812 12.828125 77.347656 11.132812 84.628906 L 10.683594 86.570312 L 9.578125 86.570312 C 8.972656 86.570312 8.472656 86.519531 8.472656 86.46875 C 8.472656 86.398438 7.847656 83.632812 7.089844 80.285156 C 6.328125 76.953125 5.707031 74.066406 5.707031 73.878906 C 5.707031 73.585938 5.808594 73.515625 6.308594 73.515625 C 6.777344 73.515625 6.96875 73.601562 7.089844 73.894531 Z M 23.929688 73.65625 C 24.050781 73.84375 26.796875 85.96875 26.796875 86.296875 C 26.796875 86.503906 26.625 86.570312 26.105469 86.570312 C 25.46875 86.570312 25.414062 86.535156 25.257812 85.917969 C 25.15625 85.574219 25.070312 85.199219 25.070312 85.113281 C 25.070312 85.007812 24.984375 84.648438 24.878906 84.285156 L 24.707031 83.632812 L 22.855469 83.6875 L 21.007812 83.738281 L 20.660156 85.113281 C 20.316406 86.46875 20.316406 86.484375 19.726562 86.535156 C 19.414062 86.570312 19.085938 86.535156 19.019531 86.453125 C 18.878906 86.3125 21.457031 74.652344 21.785156 73.894531 C 21.921875 73.570312 22.078125 73.515625 22.890625 73.515625 C 23.410156 73.515625 23.875 73.585938 23.929688 73.65625 Z M 52.871094 74.238281 L 52.921875 74.890625 L 50.3125 74.890625 L 50.3125 86.589844 L 49.585938 86.535156 L 48.839844 86.484375 L 48.789062 80.695312 L 48.753906 74.910156 L 47.492188 74.855469 C 46.335938 74.804688 46.25 74.769531 46.195312 74.410156 C 46.058594 73.515625 46.074219 73.5 49.566406 73.550781 L 52.816406 73.601562 Z M 65.265625 74.203125 L 65.265625 74.804688 L 63.15625 74.855469 L 61.03125 74.910156 L 61.03125 79.355469 L 64.488281 79.355469 L 64.488281 80.558594 L 61.03125 80.558594 L 61.03125 85.179688 L 63.242188 85.230469 L 65.4375 85.28125 L 65.492188 85.9375 L 65.542969 86.570312 L 62.550781 86.535156 L 59.5625 86.484375 L 59.507812 80.214844 C 59.492188 76.761719 59.507812 73.84375 59.5625 73.722656 C 59.613281 73.550781 60.285156 73.515625 62.449219 73.550781 L 65.265625 73.601562 Z M 87.863281 76.386719 L 87.914062 79.269531 L 89.765625 79.324219 L 91.632812 79.375 L 91.667969 76.488281 L 91.71875 73.601562 L 93.101562 73.601562 L 93.152344 80.097656 L 93.1875 86.589844 L 92.460938 86.535156 L 91.71875 86.484375 L 91.667969 83.515625 L 91.632812 80.542969 L 89.765625 80.59375 L 87.914062 80.644531 L 87.863281 83.601562 L 87.828125 86.570312 L 86.445312 86.570312 L 86.445312 80.164062 C 86.445312 76.625 86.496094 73.6875 86.566406 73.636719 C 86.617188 73.570312 86.929688 73.515625 87.242188 73.515625 L 87.828125 73.515625 Z M 7.726562 89.765625 C 7.9375 89.835938 8.175781 90.09375 8.28125 90.382812 C 8.558594 91.15625 8.523438 91.382812 8.125 91.382812 C 7.867188 91.382812 7.78125 91.261719 7.78125 90.882812 C 7.78125 90.523438 7.675781 90.332031 7.433594 90.265625 C 6.777344 90.058594 6.570312 90.453125 6.570312 91.894531 C 6.570312 93.5625 6.65625 93.785156 7.261719 93.785156 C 7.640625 93.785156 7.761719 93.699219 7.816406 93.390625 C 7.867188 92.960938 8.351562 92.875 8.4375 93.289062 C 8.453125 93.441406 8.332031 93.734375 8.160156 93.957031 C 7.902344 94.265625 7.660156 94.371094 7.15625 94.351562 C 6.171875 94.316406 6.035156 94.027344 6.085938 91.894531 C 6.136719 90.179688 6.15625 90.09375 6.570312 89.886719 C 7.054688 89.644531 7.191406 89.628906 7.726562 89.765625 Z M 48.253906 90.023438 C 48.460938 90.230469 48.582031 90.539062 48.546875 90.8125 C 48.480469 91.484375 48.082031 91.519531 47.960938 90.882812 C 47.820312 90.246094 47.664062 90.109375 47.199219 90.265625 C 46.957031 90.332031 46.851562 90.523438 46.851562 90.832031 C 46.851562 91.550781 47.042969 91.707031 48.046875 91.757812 C 48.996094 91.808594 49.414062 92.121094 48.753906 92.292969 C 48.480469 92.359375 48.410156 92.515625 48.410156 93.148438 C 48.410156 94.042969 48.117188 94.371094 47.285156 94.371094 C 46.421875 94.371094 46.160156 94.058594 46.160156 92.996094 C 46.160156 92.496094 46.230469 92.050781 46.335938 91.980469 C 46.4375 91.914062 46.4375 91.722656 46.316406 91.433594 C 46.230469 91.175781 46.195312 90.761719 46.265625 90.488281 C 46.4375 89.664062 47.613281 89.386719 48.253906 90.023438 Z M 66.183594 90.128906 C 66.40625 90.453125 66.476562 93.5625 66.25 93.90625 C 65.871094 94.488281 64.4375 94.523438 64.125 93.941406 C 64.039062 93.75 63.988281 92.824219 64.003906 91.863281 C 64.054688 90.179688 64.074219 90.09375 64.488281 89.886719 C 65.007812 89.613281 65.871094 89.730469 66.183594 90.128906 Z M 13.035156 90.109375 C 13.398438 90.453125 13.417969 92.136719 13.070312 92.445312 C 12.863281 92.636719 12.898438 92.789062 13.242188 93.476562 C 13.660156 94.285156 13.660156 94.300781 13.3125 94.300781 C 13.070312 94.300781 12.847656 94.058594 12.585938 93.527344 C 12.378906 93.097656 12.101562 92.753906 11.980469 92.753906 C 11.824219 92.753906 11.757812 93.011719 11.757812 93.527344 C 11.757812 94.09375 11.6875 94.300781 11.496094 94.300781 C 11.273438 94.300781 11.238281 93.941406 11.238281 92.066406 L 11.238281 89.835938 L 12 89.835938 C 12.464844 89.835938 12.878906 89.9375 13.035156 90.109375 Z M 18.152344 90.09375 C 18.152344 90.28125 17.964844 90.351562 17.460938 90.351562 C 16.769531 90.351562 16.769531 90.351562 16.769531 91.019531 C 16.769531 91.65625 16.804688 91.707031 17.324219 91.757812 C 18.117188 91.828125 18.171875 92.238281 17.394531 92.238281 C 16.769531 92.238281 16.769531 92.238281 16.769531 93.011719 L 16.769531 93.785156 L 17.546875 93.785156 C 18.136719 93.785156 18.328125 93.855469 18.328125 94.042969 C 18.328125 94.265625 18.136719 94.300781 17.253906 94.265625 L 16.164062 94.214844 L 16.113281 92.257812 C 16.097656 91.175781 16.113281 90.179688 16.148438 90.058594 C 16.285156 89.714844 18.152344 89.75 18.152344 90.09375 Z M 22.683594 91.894531 C 22.941406 92.976562 23.167969 93.976562 23.167969 94.078125 C 23.167969 94.523438 22.683594 94.285156 22.492188 93.769531 C 22.335938 93.304688 22.25 93.253906 21.75 93.304688 C 21.300781 93.339844 21.160156 93.441406 21.128906 93.75 C 21.074219 94.128906 20.660156 94.4375 20.488281 94.265625 C 20.402344 94.199219 21.144531 90.625 21.351562 90.042969 C 21.402344 89.921875 21.613281 89.835938 21.820312 89.871094 C 22.164062 89.921875 22.269531 90.160156 22.683594 91.894531 Z M 27.144531 90.09375 C 27.144531 90.246094 26.988281 90.351562 26.710938 90.351562 L 26.28125 90.351562 L 26.28125 92.324219 C 26.28125 93.976562 26.226562 94.300781 26.019531 94.300781 C 25.8125 94.300781 25.761719 93.976562 25.761719 92.410156 C 25.761719 90.867188 25.707031 90.488281 25.5 90.4375 C 25.363281 90.382812 25.121094 90.316406 24.964844 90.265625 C 24.378906 90.074219 24.984375 89.835938 26.039062 89.835938 C 26.902344 89.835938 27.144531 89.886719 27.144531 90.09375 Z M 30.601562 90.09375 C 30.601562 90.230469 30.53125 90.351562 30.429688 90.351562 C 30.324219 90.351562 30.257812 91.039062 30.257812 92.066406 C 30.257812 93.097656 30.324219 93.785156 30.429688 93.785156 C 30.53125 93.785156 30.601562 93.90625 30.601562 94.042969 C 30.601562 94.214844 30.410156 94.300781 29.996094 94.300781 C 29.582031 94.300781 29.390625 94.214844 29.390625 94.042969 C 29.390625 93.90625 29.476562 93.785156 29.5625 93.785156 C 29.667969 93.785156 29.738281 93.097656 29.738281 92.066406 C 29.738281 91.039062 29.667969 90.351562 29.5625 90.351562 C 29.476562 90.351562 29.390625 90.230469 29.390625 90.09375 C 29.390625 89.921875 29.582031 89.835938 29.996094 89.835938 C 30.410156 89.835938 30.601562 89.921875 30.601562 90.09375 Z M 33.609375 90.128906 C 33.644531 90.296875 33.816406 91.039062 33.992188 91.792969 C 34.164062 92.601562 34.335938 93.046875 34.40625 92.925781 C 34.492188 92.804688 34.683594 92.050781 34.855469 91.261719 C 35.097656 90.074219 35.199219 89.835938 35.476562 89.835938 C 35.71875 89.835938 35.789062 89.921875 35.71875 90.128906 C 35.683594 90.296875 35.476562 91.175781 35.269531 92.066406 C 34.769531 94.335938 34.769531 94.300781 34.335938 94.300781 C 33.972656 94.300781 33.902344 94.144531 33.472656 92.1875 C 33.230469 91.039062 33.023438 90.042969 33.023438 89.957031 C 33.023438 89.699219 33.523438 89.851562 33.609375 90.128906 Z M 40.421875 90.042969 C 40.371094 90.160156 40.023438 90.28125 39.625 90.316406 C 38.902344 90.367188 38.902344 90.367188 38.902344 91.054688 C 38.902344 91.707031 38.917969 91.722656 39.503906 91.722656 C 39.921875 91.722656 40.109375 91.808594 40.109375 91.980469 C 40.109375 92.152344 39.921875 92.238281 39.503906 92.238281 C 38.902344 92.238281 38.902344 92.238281 38.902344 93.011719 L 38.902344 93.785156 L 39.679688 93.785156 C 40.25 93.785156 40.457031 93.855469 40.457031 94.042969 C 40.457031 94.25 40.230469 94.300781 39.417969 94.300781 L 38.382812 94.300781 L 38.382812 89.835938 L 39.4375 89.835938 C 40.195312 89.835938 40.472656 89.886719 40.421875 90.042969 Z M 55.84375 90.09375 C 55.84375 90.230469 55.773438 90.351562 55.671875 90.351562 C 55.566406 90.351562 55.496094 91.039062 55.496094 92.066406 C 55.496094 93.097656 55.566406 93.785156 55.671875 93.785156 C 55.773438 93.785156 55.84375 93.90625 55.84375 94.042969 C 55.84375 94.214844 55.671875 94.300781 55.257812 94.300781 C 54.652344 94.300781 54.304688 94.078125 54.632812 93.871094 C 54.738281 93.820312 54.804688 93.03125 54.804688 92.066406 C 54.804688 91.105469 54.738281 90.316406 54.632812 90.265625 C 54.304688 90.058594 54.652344 89.835938 55.257812 89.835938 C 55.671875 89.835938 55.84375 89.921875 55.84375 90.09375 Z M 59.804688 91.382812 L 60.425781 92.839844 L 60.476562 91.328125 C 60.511719 90.160156 60.582031 89.835938 60.769531 89.835938 C 60.980469 89.835938 61.03125 90.230469 61.03125 92.085938 C 61.03125 94.078125 60.996094 94.316406 60.738281 94.265625 C 60.5625 94.230469 60.21875 93.648438 59.835938 92.789062 L 59.214844 91.347656 L 59.164062 92.824219 C 59.128906 93.976562 59.058594 94.300781 58.871094 94.300781 C 58.660156 94.300781 58.609375 93.90625 58.609375 92.050781 C 58.609375 90.058594 58.644531 89.816406 58.902344 89.871094 C 59.078125 89.902344 59.421875 90.488281 59.804688 91.382812 Z M 69.761719 91.414062 C 69.953125 92.238281 70.160156 92.945312 70.210938 92.996094 C 70.261719 93.0625 70.402344 92.652344 70.523438 92.121094 C 70.9375 90.214844 71.074219 89.835938 71.316406 89.835938 C 71.644531 89.835938 71.664062 89.75 71.109375 92.1875 C 70.675781 94.128906 70.609375 94.300781 70.246094 94.300781 C 69.832031 94.300781 69.777344 94.179688 69.261719 91.808594 C 69.105469 91.140625 68.949219 90.4375 68.898438 90.214844 C 68.808594 89.886719 68.863281 89.816406 69.105469 89.871094 C 69.328125 89.902344 69.503906 90.296875 69.761719 91.414062 Z M 75.949219 91.929688 C 76.503906 94.402344 76.488281 94.300781 76.160156 94.300781 C 76.003906 94.300781 75.847656 94.078125 75.777344 93.769531 C 75.691406 93.289062 75.621094 93.253906 75.050781 93.304688 C 74.550781 93.339844 74.414062 93.441406 74.378906 93.75 C 74.324219 94.128906 73.910156 94.4375 73.738281 94.265625 C 73.652344 94.199219 74.394531 90.625 74.601562 90.042969 C 74.636719 89.9375 74.863281 89.835938 75.070312 89.835938 C 75.433594 89.835938 75.5 90.007812 75.949219 91.929688 Z M 80.394531 90.09375 C 80.394531 90.246094 80.238281 90.351562 79.960938 90.351562 L 79.53125 90.351562 L 79.53125 92.324219 C 79.53125 93.976562 79.476562 94.300781 79.269531 94.300781 C 79.0625 94.300781 79.011719 93.976562 79.011719 92.410156 C 79.011719 90.867188 78.960938 90.488281 78.75 90.4375 C 78.613281 90.382812 78.371094 90.316406 78.214844 90.265625 C 77.628906 90.074219 78.234375 89.835938 79.289062 89.835938 C 80.152344 89.835938 80.394531 89.886719 80.394531 90.09375 Z M 83.851562 90.09375 C 83.851562 90.230469 83.78125 90.351562 83.679688 90.351562 C 83.574219 90.351562 83.507812 91.039062 83.507812 92.066406 C 83.507812 93.097656 83.574219 93.785156 83.679688 93.785156 C 83.78125 93.785156 83.851562 93.90625 83.851562 94.042969 C 83.851562 94.214844 83.660156 94.300781 83.246094 94.300781 C 82.832031 94.300781 82.640625 94.214844 82.640625 94.042969 C 82.640625 93.90625 82.726562 93.785156 82.816406 93.785156 C 82.917969 93.785156 82.988281 93.097656 82.988281 92.066406 C 82.988281 91.039062 82.917969 90.351562 82.816406 90.351562 C 82.726562 90.351562 82.640625 90.230469 82.640625 90.09375 C 82.640625 89.921875 82.832031 89.835938 83.246094 89.835938 C 83.660156 89.835938 83.851562 89.921875 83.851562 90.09375 Z M 86.859375 90.128906 C 86.894531 90.296875 87.066406 91.039062 87.242188 91.792969 C 87.414062 92.601562 87.585938 93.046875 87.65625 92.925781 C 87.742188 92.804688 87.933594 92.050781 88.105469 91.261719 C 88.347656 90.074219 88.449219 89.835938 88.726562 89.835938 C 88.96875 89.835938 89.039062 89.921875 88.96875 90.128906 C 88.917969 90.296875 88.710938 91.175781 88.519531 92.066406 C 88.035156 94.300781 88.035156 94.300781 87.585938 94.300781 C 87.222656 94.300781 87.152344 94.144531 86.722656 92.1875 C 86.480469 91.039062 86.273438 90.042969 86.273438 89.957031 C 86.273438 89.699219 86.773438 89.851562 86.859375 90.128906 Z M 93.671875 90.042969 C 93.621094 90.160156 93.273438 90.28125 92.875 90.316406 C 92.152344 90.367188 92.152344 90.367188 92.152344 91.054688 C 92.152344 91.707031 92.167969 91.722656 92.757812 91.722656 C 93.171875 91.722656 93.359375 91.808594 93.359375 91.980469 C 93.359375 92.152344 93.171875 92.238281 92.757812 92.238281 C 92.152344 92.238281 92.152344 92.238281 92.152344 93.011719 L 92.152344 93.785156 L 92.929688 93.785156 C 93.5 93.785156 93.707031 93.855469 93.707031 94.042969 C 93.707031 94.25 93.480469 94.300781 92.667969 94.300781 L 91.632812 94.300781 L 91.632812 89.835938 L 92.6875 89.835938 C 93.449219 89.835938 93.722656 89.886719 93.671875 90.042969 Z M 93.671875 90.042969 "/>
<path style=" stroke:none;fill-rule:nonzero;fill:rgb(0%,0%,0%);fill-opacity:1;" d="M 46.25 10.648438 L 42.789062 14.085938 L 56.621094 14.085938 L 53.164062 10.648438 C 51.261719 8.761719 49.707031 7.214844 49.707031 7.214844 C 49.707031 7.214844 48.148438 8.761719 46.25 10.648438 Z M 46.25 10.648438 "/>
<path style=" stroke:none;fill-rule:nonzero;fill:rgb(0%,0%,0%);fill-opacity:1;" d="M 28.699219 20.648438 L 28.699219 25.507812 L 33.539062 20.699219 C 36.203125 18.054688 38.382812 15.871094 38.382812 15.855469 C 38.382812 15.820312 36.203125 15.800781 33.539062 15.800781 L 28.699219 15.800781 Z M 28.699219 20.648438 "/>
<path style=" stroke:none;fill-rule:nonzero;fill:rgb(0%,0%,0%);fill-opacity:1;" d="M 38.675781 18.171875 C 37.378906 19.460938 36.308594 20.59375 36.308594 20.664062 C 36.308594 20.734375 37.8125 20.785156 39.644531 20.785156 L 42.964844 20.785156 L 45.347656 18.414062 C 46.644531 17.125 47.71875 15.992188 47.71875 15.921875 C 47.71875 15.855469 46.214844 15.800781 44.382812 15.800781 L 41.0625 15.800781 Z M 38.675781 18.171875 "/>
<path style=" stroke:none;fill-rule:nonzero;fill:rgb(0%,0%,0%);fill-opacity:1;" d="M 51.695312 15.941406 C 51.695312 16.007812 52.765625 17.125 54.082031 18.429688 L 56.449219 20.785156 L 59.785156 20.785156 C 61.601562 20.785156 63.105469 20.734375 63.105469 20.648438 C 63.105469 20.578125 62.03125 19.460938 60.71875 18.15625 L 58.351562 15.800781 L 55.015625 15.800781 C 53.199219 15.800781 51.695312 15.855469 51.695312 15.941406 Z M 51.695312 15.941406 "/>
<path style=" stroke:none;fill-rule:nonzero;fill:rgb(0%,0%,0%);fill-opacity:1;" d="M 61.203125 15.921875 C 61.203125 16.09375 70.589844 25.421875 70.765625 25.421875 C 70.832031 25.421875 70.867188 23.273438 70.851562 20.648438 L 70.796875 15.886719 L 66.007812 15.835938 C 63.363281 15.820312 61.203125 15.855469 61.203125 15.921875 Z M 61.203125 15.921875 "/>
<path style=" stroke:none;fill-rule:nonzero;fill:rgb(0%,0%,0%);fill-opacity:1;" d="M 47.269531 18.328125 L 44.863281 20.699219 L 49.601562 20.75 C 52.214844 20.765625 54.375 20.75 54.441406 20.699219 C 54.53125 20.59375 49.964844 15.972656 49.773438 15.972656 C 49.707031 15.972656 48.582031 17.039062 47.269531 18.328125 Z M 47.269531 18.328125 "/>
<path style=" stroke:none;fill-rule:nonzero;fill:rgb(0%,0%,0%);fill-opacity:1;" d="M 34.871094 22.105469 C 34.699219 22.261719 34.714844 28.683594 34.890625 28.683594 C 34.957031 28.683594 36.53125 27.171875 38.382812 25.335938 L 41.753906 21.988281 L 38.363281 21.988281 C 36.496094 21.988281 34.925781 22.039062 34.871094 22.105469 Z M 34.871094 22.105469 "/>
<path style=" stroke:none;fill-rule:nonzero;fill:rgb(0%,0%,0%);fill-opacity:1;" d="M 41.824219 23.652344 C 40.871094 24.5625 40.109375 25.371094 40.109375 25.457031 C 40.109375 25.523438 41.21875 25.59375 42.582031 25.59375 L 45.039062 25.59375 L 46.851562 23.789062 L 48.667969 21.988281 L 43.515625 21.988281 Z M 41.824219 23.652344 "/>
<path style=" stroke:none;fill-rule:nonzero;fill:rgb(0%,0%,0%);fill-opacity:1;" d="M 47.71875 23.789062 L 45.902344 25.59375 L 49.671875 25.59375 C 51.730469 25.59375 53.421875 25.542969 53.421875 25.457031 C 53.421875 25.214844 50.050781 21.988281 49.792969 21.988281 C 49.636719 21.988281 48.71875 22.792969 47.71875 23.789062 Z M 47.71875 23.789062 "/>
<path style=" stroke:none;fill-rule:nonzero;fill:rgb(0%,0%,0%);fill-opacity:1;" d="M 52.558594 23.789062 L 54.375 25.59375 L 56.828125 25.59375 C 58.195312 25.59375 59.300781 25.542969 59.300781 25.457031 C 59.300781 25.386719 58.539062 24.582031 57.605469 23.652344 L 55.929688 21.988281 L 50.742188 21.988281 Z M 52.558594 23.789062 "/>
<path style=" stroke:none;fill-rule:nonzero;fill:rgb(0%,0%,0%);fill-opacity:1;" d="M 57.917969 22.125 C 57.917969 22.277344 64.367188 28.683594 64.539062 28.683594 C 64.609375 28.683594 64.660156 27.171875 64.660156 25.335938 L 64.660156 21.988281 L 61.289062 21.988281 C 59.441406 21.988281 57.917969 22.039062 57.917969 22.125 Z M 57.917969 22.125 "/>
<path style=" stroke:none;fill-rule:nonzero;fill:rgb(0%,0%,0%);fill-opacity:1;" d="M 31.085938 25.714844 L 28.71875 28.085938 L 28.683594 31.398438 C 28.683594 33.238281 28.699219 34.75 28.734375 34.78125 C 28.769531 34.835938 29.875 33.785156 31.171875 32.5 L 33.539062 30.128906 L 33.507812 26.746094 L 33.453125 23.359375 Z M 31.085938 25.714844 "/>
<path style=" stroke:none;fill-rule:nonzero;fill:rgb(0%,0%,0%);fill-opacity:1;" d="M 65.871094 26.847656 L 65.871094 30.144531 L 68.257812 32.515625 C 69.554688 33.804688 70.695312 34.867188 70.765625 34.867188 C 70.832031 34.867188 70.886719 33.375 70.886719 31.554688 L 70.886719 28.257812 L 68.5 25.886719 C 67.203125 24.597656 66.0625 23.53125 65.992188 23.53125 C 65.921875 23.53125 65.871094 25.027344 65.871094 26.847656 Z M 65.871094 26.847656 "/>
<path style=" stroke:none;fill-rule:nonzero;fill:rgb(0%,0%,0%);fill-opacity:1;" d="M 39.074219 26.554688 C 38.867188 27.070312 38.832031 31.433594 39.039062 31.433594 C 39.109375 31.433594 40.371094 30.230469 41.839844 28.769531 L 44.519531 26.109375 L 39.246094 26.109375 Z M 39.074219 26.554688 "/>
<path style=" stroke:none;fill-rule:nonzero;fill:rgb(0%,0%,0%);fill-opacity:1;" d="M 42.132812 29.339844 L 38.902344 32.550781 L 38.902344 41.121094 L 42.046875 44.265625 L 45.195312 47.40625 L 54.203125 47.40625 L 57.363281 44.265625 L 60.511719 41.136719 L 60.511719 32.378906 L 57.347656 29.234375 L 54.203125 26.109375 L 45.382812 26.109375 Z M 47.976562 28.546875 C 48.027344 28.769531 48.496094 30.832031 49.015625 33.132812 C 49.550781 35.453125 50 37.359375 50.035156 37.410156 C 50.136719 37.496094 50.207031 37.222656 51.261719 32.652344 C 51.78125 30.351562 52.265625 28.410156 52.316406 28.324219 C 52.421875 28.136719 53.371094 28.117188 53.476562 28.289062 C 53.527344 28.375 52.992188 30.902344 52.300781 33.925781 L 51.054688 39.421875 L 50.15625 39.472656 C 49.378906 39.523438 49.257812 39.472656 49.101562 39.128906 C 48.910156 38.648438 46.679688 28.875 46.679688 28.460938 C 46.679688 28.238281 46.835938 28.171875 47.285156 28.171875 C 47.769531 28.171875 47.90625 28.238281 47.976562 28.546875 Z M 47.976562 28.546875 "/>
<path style=" stroke:none;fill-rule:nonzero;fill:rgb(0%,0%,0%);fill-opacity:1;" d="M 55.152344 26.246094 C 55.152344 26.402344 60.21875 31.433594 60.390625 31.433594 C 60.617188 31.433594 60.527344 26.539062 60.304688 26.316406 C 60.078125 26.089844 55.152344 26.003906 55.152344 26.246094 Z M 55.152344 26.246094 "/>
<path style=" stroke:none;fill-rule:nonzero;fill:rgb(0%,0%,0%);fill-opacity:1;" d="M 61.03125 29.628906 L 61.03125 32.207031 L 62.726562 33.890625 C 63.640625 34.800781 64.472656 35.554688 64.539062 35.554688 C 64.609375 35.554688 64.660156 34.457031 64.660156 33.101562 L 64.660156 30.660156 L 62.847656 28.855469 L 61.03125 27.054688 Z M 61.03125 29.628906 "/>
<path style=" stroke:none;fill-rule:nonzero;fill:rgb(0%,0%,0%);fill-opacity:1;" d="M 36.429688 29.011719 L 34.75 30.695312 L 34.75 33.132812 C 34.75 34.457031 34.804688 35.554688 34.890625 35.554688 C 34.957031 35.554688 35.804688 34.765625 36.792969 33.785156 L 38.554688 32.035156 L 38.554688 29.664062 C 38.554688 27.84375 38.503906 27.3125 38.328125 27.3125 C 38.207031 27.3125 37.34375 28.066406 36.429688 29.011719 Z M 36.429688 29.011719 "/>
<path style=" stroke:none;fill-rule:nonzero;fill:rgb(0%,0%,0%);fill-opacity:1;" d="M 23.390625 33.359375 C 21.558594 35.179688 20.054688 36.757812 20.054688 36.84375 C 20.054688 37.085938 26.589844 43.542969 26.710938 43.441406 C 26.761719 43.390625 26.78125 40.347656 26.761719 36.691406 L 26.710938 30.058594 Z M 23.390625 33.359375 "/>
<path style=" stroke:none;fill-rule:nonzero;fill:rgb(0%,0%,0%);fill-opacity:1;" d="M 72.613281 36.722656 C 72.613281 40.433594 72.664062 43.457031 72.753906 43.457031 C 72.820312 43.457031 74.378906 41.964844 76.210938 40.140625 L 79.546875 36.828125 L 76.953125 34.25 C 75.535156 32.84375 73.980469 31.3125 73.496094 30.832031 L 72.613281 29.992188 Z M 72.613281 36.722656 "/>
<path style=" stroke:none;fill-rule:nonzero;fill:rgb(0%,0%,0%);fill-opacity:1;" d="M 30.949219 34.441406 L 28.613281 36.757812 L 31.085938 39.214844 L 33.539062 41.652344 L 33.539062 36.878906 C 33.539062 34.269531 33.488281 32.121094 33.402344 32.121094 C 33.332031 32.121094 32.226562 33.167969 30.949219 34.441406 Z M 30.949219 34.441406 "/>
<path style=" stroke:none;fill-rule:nonzero;fill:rgb(0%,0%,0%);fill-opacity:1;" d="M 65.871094 36.757812 C 65.871094 39.300781 65.921875 41.394531 66.007812 41.394531 C 66.078125 41.394531 67.183594 40.347656 68.464844 39.078125 L 70.796875 36.757812 L 68.464844 34.441406 C 67.183594 33.167969 66.078125 32.121094 66.007812 32.121094 C 65.921875 32.121094 65.871094 34.199219 65.871094 36.757812 Z M 65.871094 36.757812 "/>
<path style=" stroke:none;fill-rule:nonzero;fill:rgb(0%,0%,0%);fill-opacity:1;" d="M 61.03125 36.757812 L 61.03125 40.625 L 62.847656 38.820312 C 63.847656 37.824219 64.660156 36.894531 64.660156 36.757812 C 64.660156 36.621094 63.847656 35.695312 62.847656 34.699219 L 61.03125 32.894531 Z M 61.03125 36.757812 "/>
<path style=" stroke:none;fill-rule:nonzero;fill:rgb(0%,0%,0%);fill-opacity:1;" d="M 36.496094 34.867188 C 35.527344 35.796875 34.75 36.671875 34.75 36.792969 C 34.75 37.101562 38.277344 40.570312 38.433594 40.417969 C 38.605469 40.246094 38.554688 33.339844 38.382812 33.238281 C 38.3125 33.1875 37.449219 33.925781 36.496094 34.867188 Z M 36.496094 34.867188 "/>
<path style=" stroke:none;fill-rule:nonzero;fill:rgb(0%,0%,0%);fill-opacity:1;" d="M 34.75 40.417969 L 34.75 42.855469 L 36.53125 44.625 C 37.515625 45.585938 38.363281 46.34375 38.433594 46.273438 C 38.503906 46.207031 38.554688 45.105469 38.554688 43.835938 L 38.554688 41.515625 L 36.792969 39.746094 C 35.824219 38.769531 34.976562 37.960938 34.890625 37.960938 C 34.820312 37.960938 34.75 39.058594 34.75 40.417969 Z M 34.75 40.417969 "/>
<path style=" stroke:none;fill-rule:nonzero;fill:rgb(0%,0%,0%);fill-opacity:1;" d="M 62.707031 39.644531 L 61.03125 41.308594 L 61.03125 46.464844 L 62.847656 44.660156 L 64.660156 42.855469 L 64.660156 40.417969 C 64.660156 39.058594 64.609375 37.960938 64.523438 37.960938 C 64.453125 37.960938 63.640625 38.714844 62.707031 39.644531 Z M 62.707031 39.644531 "/>
<path style=" stroke:none;fill-rule:nonzero;fill:rgb(0%,0%,0%);fill-opacity:1;" d="M 28.699219 42.222656 L 28.699219 45.605469 L 31 47.890625 C 32.261719 49.125 33.351562 50.15625 33.417969 50.15625 C 33.488281 50.15625 33.539062 48.628906 33.539062 46.753906 L 33.539062 43.371094 L 31.242188 41.085938 C 29.980469 39.851562 28.890625 38.820312 28.820312 38.820312 C 28.75 38.820312 28.699219 40.347656 28.699219 42.222656 Z M 28.699219 42.222656 "/>
<path style=" stroke:none;fill-rule:nonzero;fill:rgb(0%,0%,0%);fill-opacity:1;" d="M 68.238281 41.191406 L 65.871094 43.542969 L 65.871094 46.859375 C 65.871094 48.660156 65.921875 50.15625 66.007812 50.15625 C 66.078125 50.15625 67.203125 49.089844 68.515625 47.785156 L 70.886719 45.433594 L 70.886719 42.117188 C 70.886719 40.3125 70.832031 38.820312 70.746094 38.820312 C 70.675781 38.820312 69.554688 39.882812 68.238281 41.191406 Z M 68.238281 41.191406 "/>
<path style=" stroke:none;fill-rule:nonzero;fill:rgb(0%,0%,0%);fill-opacity:1;" d="M 39.019531 42.1875 C 38.953125 42.253906 38.902344 43.371094 38.902344 44.660156 C 38.902344 46.464844 38.953125 47.066406 39.140625 47.21875 C 39.296875 47.355469 40.195312 47.40625 41.910156 47.375 L 44.433594 47.324219 L 41.789062 44.695312 C 40.335938 43.25 39.089844 42.117188 39.019531 42.1875 Z M 39.019531 42.1875 "/>
<path style=" stroke:none;fill-rule:nonzero;fill:rgb(0%,0%,0%);fill-opacity:1;" d="M 57.574219 44.746094 L 54.894531 47.40625 L 57.503906 47.40625 C 59.285156 47.40625 60.164062 47.339844 60.304688 47.203125 C 60.527344 46.980469 60.617188 42.082031 60.375 42.082031 C 60.304688 42.082031 59.042969 43.285156 57.574219 44.746094 Z M 57.574219 44.746094 "/>
<path style=" stroke:none;fill-rule:nonzero;fill:rgb(0%,0%,0%);fill-opacity:1;" d="M 34.75 48.179688 L 34.75 51.53125 L 41.753906 51.53125 L 38.554688 48.335938 C 36.792969 46.582031 35.21875 45.070312 35.0625 44.984375 C 34.769531 44.832031 34.75 45.039062 34.75 48.179688 Z M 34.75 48.179688 "/>
<path style=" stroke:none;fill-rule:nonzero;fill:rgb(0%,0%,0%);fill-opacity:1;" d="M 61.203125 48.179688 L 57.832031 51.53125 L 64.660156 51.53125 L 64.660156 48.179688 C 64.660156 46.34375 64.644531 44.832031 64.609375 44.832031 C 64.59375 44.832031 63.054688 46.34375 61.203125 48.179688 Z M 61.203125 48.179688 "/>
<path style=" stroke:none;fill-rule:nonzero;fill:rgb(0%,0%,0%);fill-opacity:1;" d="M 41.667969 49.726562 L 43.480469 51.53125 L 48.667969 51.53125 L 46.851562 49.726562 L 45.039062 47.921875 L 39.851562 47.921875 Z M 41.667969 49.726562 "/>
<path style=" stroke:none;fill-rule:nonzero;fill:rgb(0%,0%,0%);fill-opacity:1;" d="M 45.988281 48.0625 C 45.988281 48.351562 49.394531 51.53125 49.707031 51.53125 C 49.914062 51.53125 50.777344 50.808594 51.867188 49.726562 L 53.683594 47.921875 L 49.828125 47.921875 C 47.71875 47.921875 45.988281 47.976562 45.988281 48.0625 Z M 45.988281 48.0625 "/>
<path style=" stroke:none;fill-rule:nonzero;fill:rgb(0%,0%,0%);fill-opacity:1;" d="M 52.558594 49.726562 L 50.742188 51.53125 L 55.929688 51.53125 L 59.5625 47.921875 L 54.375 47.921875 Z M 52.558594 49.726562 "/>
<path style=" stroke:none;fill-rule:nonzero;fill:rgb(0%,0%,0%);fill-opacity:1;" d="M 28.699219 52.90625 L 28.699219 57.714844 L 38.46875 57.714844 L 33.628906 52.90625 C 30.964844 50.257812 28.769531 48.09375 28.75 48.09375 C 28.71875 48.09375 28.699219 50.257812 28.699219 52.90625 Z M 28.699219 52.90625 "/>
<path style=" stroke:none;fill-rule:nonzero;fill:rgb(0%,0%,0%);fill-opacity:1;" d="M 65.90625 52.785156 C 63.328125 55.34375 61.203125 57.507812 61.203125 57.59375 C 61.203125 57.664062 63.382812 57.714844 66.042969 57.714844 L 70.886719 57.714844 L 70.886719 52.90625 C 70.886719 50.257812 70.832031 48.09375 70.746094 48.09375 C 70.675781 48.09375 68.5 50.207031 65.90625 52.785156 Z M 65.90625 52.785156 "/>
<path style=" stroke:none;fill-rule:nonzero;fill:rgb(0%,0%,0%);fill-opacity:1;" d="M 36.308594 53.023438 C 36.308594 53.09375 37.34375 54.175781 38.589844 55.429688 L 40.886719 57.714844 L 47.976562 57.714844 L 45.558594 55.308594 L 43.136719 52.90625 L 39.730469 52.90625 C 37.847656 52.90625 36.308594 52.957031 36.308594 53.023438 Z M 36.308594 53.023438 "/>
<path style=" stroke:none;fill-rule:nonzero;fill:rgb(0%,0%,0%);fill-opacity:1;" d="M 47.285156 55.308594 L 49.707031 57.714844 L 52.074219 55.359375 C 53.386719 54.054688 54.460938 52.972656 54.460938 52.957031 C 54.460938 52.921875 52.300781 52.90625 49.671875 52.90625 L 44.863281 52.90625 Z M 47.285156 55.308594 "/>
<path style=" stroke:none;fill-rule:nonzero;fill:rgb(0%,0%,0%);fill-opacity:1;" d="M 54.027344 55.308594 L 51.609375 57.714844 L 58.523438 57.714844 L 60.945312 55.308594 L 63.363281 52.90625 L 56.449219 52.90625 Z M 54.027344 55.308594 "/>
<path style=" stroke:none;fill-rule:nonzero;fill:rgb(0%,0%,0%);fill-opacity:1;" d="M 43.050781 59.65625 C 43.050781 59.894531 49.445312 66.300781 49.707031 66.300781 C 49.914062 66.300781 56.535156 59.757812 56.535156 59.550781 C 56.535156 59.484375 53.507812 59.433594 49.792969 59.433594 C 44.484375 59.433594 43.050781 59.484375 43.050781 59.65625 Z M 43.050781 59.65625 "/>
<path style=" stroke:none;fill-rule:nonzero;fill:rgb(0%,0%,0%);fill-opacity:1;" d="M 22.078125 78.875 C 21.730469 80.507812 21.4375 81.949219 21.4375 82.054688 C 21.4375 82.226562 21.851562 82.277344 22.90625 82.277344 C 23.71875 82.277344 24.378906 82.242188 24.378906 82.191406 C 24.378906 82.140625 24.066406 80.730469 23.6875 79.082031 C 23.304688 77.417969 22.996094 76.023438 22.996094 75.992188 C 22.996094 75.957031 22.941406 75.921875 22.855469 75.921875 C 22.785156 75.921875 22.441406 77.261719 22.078125 78.875 Z M 22.078125 78.875 "/>
<path style=" stroke:none;fill-rule:nonzero;fill:rgb(0%,0%,0%);fill-opacity:1;" d="M 46.90625 92.359375 C 46.558594 92.496094 46.628906 93.578125 46.992188 93.769531 C 47.511719 94.042969 47.890625 93.683594 47.890625 92.925781 C 47.890625 92.324219 47.839844 92.238281 47.511719 92.257812 C 47.285156 92.257812 47.007812 92.308594 46.90625 92.359375 Z M 46.90625 92.359375 "/>
<path style=" stroke:none;fill-rule:nonzero;fill:rgb(0%,0%,0%);fill-opacity:1;" d="M 64.695312 90.382812 C 64.558594 90.523438 64.488281 91.15625 64.488281 92.101562 C 64.488281 93.355469 64.539062 93.632812 64.800781 93.75 C 65.128906 93.921875 65.542969 93.835938 65.734375 93.546875 C 65.800781 93.441406 65.871094 92.753906 65.871094 92.035156 C 65.871094 91.070312 65.800781 90.640625 65.59375 90.453125 C 65.265625 90.128906 64.972656 90.109375 64.695312 90.382812 Z M 64.695312 90.382812 "/>
<path style=" stroke:none;fill-rule:nonzero;fill:rgb(0%,0%,0%);fill-opacity:1;" d="M 11.757812 91.277344 C 11.757812 92.085938 11.808594 92.238281 12.066406 92.238281 C 12.636719 92.238281 12.8125 91.980469 12.757812 91.191406 C 12.707031 90.503906 12.65625 90.4375 12.242188 90.382812 C 11.757812 90.332031 11.757812 90.351562 11.757812 91.277344 Z M 11.757812 91.277344 "/>
<path style=" stroke:none;fill-rule:nonzero;fill:rgb(0%,0%,0%);fill-opacity:1;" d="M 21.507812 91.894531 L 21.316406 92.753906 L 22.25 92.753906 L 22.078125 91.894531 C 21.992188 91.414062 21.851562 91.039062 21.800781 91.039062 C 21.730469 91.039062 21.59375 91.414062 21.507812 91.894531 Z M 21.507812 91.894531 "/>
<path style=" stroke:none;fill-rule:nonzero;fill:rgb(0%,0%,0%);fill-opacity:1;" d="M 74.984375 91.210938 C 74.929688 91.347656 74.808594 91.757812 74.707031 92.101562 C 74.550781 92.738281 74.550781 92.753906 75.035156 92.753906 C 75.519531 92.753906 75.519531 92.753906 75.363281 92.015625 C 75.136719 91.019531 75.085938 90.917969 74.984375 91.210938 Z M 74.984375 91.210938 "/>
</g>
</svg>
